<svg fill="none" height="24" viewBox="0 0 24 24" width="24" xmlns="http://www.w3.org/2000/svg"><g fill="#fff"><path d="M6 1c.5 0 .9.4.9.9v12.9c0 .57 0 .95.02 1.24.03.28.07.4.1.46.1.2.27.37.48.48.07.03.18.07.46.1.29.02.67.02 1.24.02h12.9a.9.9 0 0 1 0 1.8h-3.2v3.2a.9.9 0 1 1-1.8 0v-3.2H9.16c-.53 0-.98 0-1.35-.03-.39-.03-.76-.1-1.13-.29a2.9 2.9 0 0 1-1.26-1.26 2.96 2.96 0 0 1-.29-1.13c-.03-.37-.03-.82-.03-1.35V6.9H1.9a.9.9 0 0 1 0-1.8h3.2V1.9c0-.5.4-.9.9-.9z"></path><path d="M16.04 6.92c-.29-.02-.67-.02-1.24-.02H9.9a.9.9 0 1 1 0-1.8h4.94c.53 0 .98 0 1.35.03.39.03.76.1 1.13.29.54.27.99.72 1.26 1.26.19.37.26.74.29 1.13.03.37.03.82.03 1.35v4.94a.9.9 0 1 1-1.8 0V9.2c0-.57 0-.95-.02-1.24-.03-.28-.07-.4-.1-.46a1.1 1.1 0 0 0-.48-.48 1.23 1.23 0 0 0-.46-.1z"></path></g></svg>